<?xml version="1.0" standalone="no"?><!DOCTYPE svg PUBLIC "-//W3C//DTD SVG 1.1//EN" "http://www.w3.org/Graphics/SVG/1.1/DTD/svg11.dtd"><svg t="1621130440708" class="icon" viewBox="0 0 1024 1024" version="1.1" xmlns="http://www.w3.org/2000/svg" p-id="19706" xmlns:xlink="http://www.w3.org/1999/xlink" width="128" height="128"><defs><style type="text/css"></style></defs><path d="M130.773333 759.082667c0-34.986667-7.509333-173.141333 101.461334-282.709334C305.493333 402.645333 415.274667 389.845333 546.56 384V200.234667a32 32 0 0 1 53.504-23.68l304.64 276.352a32 32 0 0 1 0.256 47.189333l-304.64 282.112a32 32 0 0 1-53.76-23.466667V576c-83.328 2.304-142.677333 7.594667-196.608 24.746667-77.653333 24.746667-137.685333 94.805333-180.053333 210.261333a32 32 0 0 1-30.037334 20.992H130.56c0-21.034667 0.213333-54.357333 0.213333-72.917333z" fill="#000000" p-id="19707"></path></svg>