<?xml version="1.0" standalone="no"?><!DOCTYPE svg PUBLIC "-//W3C//DTD SVG 1.1//EN" "http://www.w3.org/Graphics/SVG/1.1/DTD/svg11.dtd"><svg t="1621130458602" class="icon" viewBox="0 0 1024 1024" version="1.1" xmlns="http://www.w3.org/2000/svg" p-id="20620" xmlns:xlink="http://www.w3.org/1999/xlink" width="128" height="128"><defs><style type="text/css"></style></defs><path d="M914.986667 759.082667c0-34.986667 7.509333-173.141333-101.461334-282.709334C740.181333 402.645333 630.485333 389.845333 499.2 384V200.234667a32 32 0 0 0-53.504-23.68l-304.64 276.352a32 32 0 0 0-0.256 47.189333l304.64 282.112a32 32 0 0 0 53.76-23.466667V576c83.328 2.304 142.677333 7.594667 196.608 24.746667 77.653333 24.746667 137.685333 94.805333 180.053333 210.261333a32 32 0 0 0 30.037334 20.992h9.301333c0-21.034667-0.213333-54.357333-0.213333-72.917333z" fill="#000000" p-id="20621"></path></svg>